# xmcd
#
# Track frame offsets: 
#        150
#        17070
#        50655
#        93290
#        110120
#        125473
#        156620
#        172718
#        206538
#        227655
#
# Disc length: 3349 seconds
#
# Revision: 1
# Processed by: cddbd v1.5.2PL0 Copyright (c) Steve Scherf et al.
# Submitted via: ExactAudioCopy v0.95b4
#
DISCID=810d130a
DTITLE=Eric Clapton - 1995-02-19 - Welcome Back '95 - CD2
DYEAR=1995
DGENRE=Blues
TTITLE0=Sinners Prayer
TTITLE1=Every Day I Have The Blues
TTITLE2=Early In The Morning
TTITLE3=Someday After A While
TTITLE4=Tore Down
TTITLE5=Have You Ever Loved A Woman
TTITLE6=Crosscut Saw
TTITLE7=Five Long Years
TTITLE8=Got My Mojo Working
TTITLE9=Ain't Nobody's Business
EXTD=
EXTT0=
EXTT1=
EXTT2=
EXTT3=
EXTT4=
EXTT5=
EXTT6=
EXTT7=
EXTT8=
EXTT9=
PLAYORDER=
